<?xml version="1.0" encoding="UTF-8" standalone="no"?>
<!DOCTYPE svg PUBLIC "-//W3C//DTD SVG 1.1//EN" "http://www.w3.org/Graphics/SVG/1.1/DTD/svg11.dtd">
<svg version="1.1" xmlns="http://www.w3.org/2000/svg" xmlns:xlink="http://www.w3.org/1999/xlink" preserveAspectRatio="xMidYMid meet" viewBox="0 0 38 54" width="38" height="54"><defs><path d="M25.88 32.46L25.99 32.47L26.1 32.49L26.2 32.52L26.3 32.55L26.4 32.6L26.5 32.65L26.59 32.7L26.68 32.77L26.77 32.84L27.25 33.28L27.6 33.62L27.93 33.98L28.23 34.35L28.52 34.74L28.78 35.14L29.02 35.56L29.23 35.99L29.42 36.43L29.59 36.88L29.73 37.35L29.8 37.62L29.86 37.89L29.91 38.16L29.96 38.44L30 38.72L30.03 38.99L30.06 39.27L30.08 39.55L30.09 39.83L30.09 40.11L30.09 40.62L30.08 40.98L30.06 41.34L30.01 41.69L29.95 42.05L29.87 42.4L29.77 42.74L29.65 43.08L29.52 43.41L29.37 43.74L29.2 44.06L24.74 52.1L24.57 52.36L24.36 52.58L24.14 52.77L23.88 52.92L23.61 53.04L23.33 53.11L23.04 53.14L22.74 53.13L22.45 53.08L22.15 52.98L16.72 50.65L16.47 50.52L16.26 50.35L16.08 50.16L15.93 49.94L15.83 49.7L15.76 49.44L15.74 49.18L15.76 48.92L15.82 48.65L15.93 48.4L23.41 34.5L23.5 34.34L23.59 34.19L23.69 34.04L23.79 33.89L23.9 33.74L24.01 33.6L24.12 33.46L24.24 33.33L24.36 33.19L24.48 33.07L24.6 32.96L24.73 32.85L24.87 32.76L25.01 32.68L25.16 32.61L25.31 32.56L25.47 32.51L25.63 32.48L25.8 32.46L25.87 32.46L25.77 32.45L25.96 32.45L25.87 32.46L25.88 32.46ZM19.1 28.72L19.28 28.73L19.46 28.75L19.63 28.78L19.81 28.81L19.99 28.84L20.16 28.88L20.32 28.93L20.47 28.99L20.62 29.06L20.76 29.14L20.9 29.23L21.03 29.33L21.15 29.44L21.26 29.57L21.36 29.7L21.4 29.76L21.41 29.77L21.45 29.87L21.49 29.97L21.52 30.07L21.54 30.18L21.56 30.29L21.56 30.39L21.56 30.5L21.55 30.61L21.54 30.72L21.41 31.37L21.3 31.84L21.17 32.3L21.01 32.76L20.82 33.2L20.61 33.63L20.38 34.05L20.12 34.46L19.84 34.85L19.54 35.23L19.21 35.59L19.02 35.79L18.82 35.98L18.61 36.17L18.4 36.35L18.18 36.53L17.96 36.7L17.74 36.87L17.51 37.03L17.27 37.18L17.04 37.33L16.6 37.59L16.29 37.77L15.97 37.93L15.64 38.08L15.3 38.21L14.96 38.32L14.62 38.41L14.27 38.49L13.91 38.55L13.56 38.59L13.2 38.61L4.01 38.95L3.7 38.94L3.4 38.88L3.12 38.78L2.86 38.65L2.62 38.47L2.41 38.27L2.23 38.04L2.09 37.78L1.98 37.5L1.92 37.2L1.1 31.34L1.08 31.06L1.11 30.79L1.19 30.53L1.3 30.3L1.45 30.08L1.63 29.9L1.85 29.74L2.08 29.62L2.34 29.54L2.62 29.5L18.38 28.71L18.56 28.71L18.74 28.7L18.92 28.71L19.1 28.72ZM21.4 29.76L21.35 29.67L21.45 29.83L21.4 29.76ZM20.16 28.88L20.16 28.88L20.16 28.88L20.16 28.88ZM12.24 6.63L12.48 6.73L12.71 6.87L12.91 7.05L13.08 7.27L21.75 20.46L21.85 20.61L21.94 20.77L22.03 20.93L22.11 21.08L22.19 21.25L22.26 21.41L22.33 21.58L22.39 21.74L22.45 21.91L22.51 22.08L22.55 22.24L22.57 22.4L22.59 22.57L22.59 22.73L22.58 22.89L22.56 23.06L22.52 23.22L22.47 23.37L22.41 23.53L22.38 23.6L22.38 23.6L22.31 23.69L22.25 23.78L22.17 23.86L22.09 23.93L22.01 24L21.92 24.06L21.82 24.11L21.72 24.16L21.62 24.2L21 24.42L20.54 24.56L20.07 24.68L19.6 24.78L19.12 24.84L18.64 24.88L18.16 24.89L17.68 24.88L17.2 24.83L16.72 24.76L16.25 24.66L15.98 24.6L15.71 24.52L15.44 24.44L15.17 24.35L14.91 24.25L14.65 24.15L14.39 24.04L14.14 23.93L13.89 23.8L13.64 23.67L13.19 23.43L12.88 23.25L12.58 23.06L12.29 22.85L12.01 22.62L11.74 22.39L11.48 22.14L11.24 21.87L11.01 21.6L10.79 21.31L10.59 21.01L5.64 13.26L5.49 12.99L5.39 12.71L5.34 12.42L5.32 12.12L5.35 11.83L5.42 11.55L5.53 11.27L5.68 11.02L5.86 10.78L6.09 10.57L10.72 6.9L10.96 6.74L11.21 6.63L11.46 6.57L11.73 6.55L11.99 6.57L12.24 6.63ZM22.38 23.6L22.43 23.51L22.34 23.68L22.38 23.6ZM30.2 0.92L30.49 1.02L35.93 3.33L36.18 3.46L36.39 3.62L36.57 3.82L36.72 4.04L36.83 4.28L36.89 4.53L36.92 4.79L36.9 5.06L36.84 5.32L36.73 5.58L29.29 19.5L29.21 19.66L29.11 19.81L29.02 19.96L28.92 20.11L28.81 20.26L28.71 20.4L28.59 20.54L28.48 20.68L28.36 20.81L28.23 20.94L28.11 21.05L27.98 21.15L27.85 21.24L27.7 21.32L27.56 21.39L27.4 21.45L27.24 21.5L27.08 21.53L26.92 21.55L26.85 21.55L26.94 21.55L26.75 21.56L26.85 21.55L26.83 21.55L26.72 21.54L26.62 21.52L26.51 21.49L26.41 21.46L26.31 21.41L26.21 21.36L26.12 21.31L26.03 21.24L25.95 21.17L25.46 20.73L25.11 20.39L24.78 20.04L24.47 19.67L24.19 19.28L23.93 18.88L23.69 18.47L23.47 18.04L23.28 17.59L23.11 17.14L22.97 16.68L22.9 16.41L22.84 16.13L22.78 15.86L22.73 15.58L22.69 15.31L22.66 15.03L22.63 14.75L22.61 14.47L22.6 14.19L22.6 13.91L22.59 13.4L22.6 13.04L22.63 12.69L22.67 12.33L22.73 11.98L22.81 11.63L22.91 11.28L23.03 10.94L23.16 10.61L23.31 10.28L23.47 9.96L27.91 1.91L28.08 1.65L28.28 1.42L28.51 1.23L28.76 1.08L29.03 0.97L29.31 0.89L29.6 0.86L29.9 0.86L30.2 0.92Z" id="f2ydRZOrh"></path></defs><g><g><g><use xlink:href="#f2ydRZOrh" opacity="1" fill="#e8524d" fill-opacity="1"></use><g><use xlink:href="#f2ydRZOrh" opacity="1" fill-opacity="0" stroke="#e8524d" stroke-width="1" stroke-opacity="1"></use></g></g></g></g></svg>